<?xml version="1.0" encoding="utf-8"?>
<!-- Generator: Adobe Illustrator 16.0.0, SVG Export Plug-In . SVG Version: 6.00 Build 0)  -->
<!DOCTYPE svg PUBLIC "-//W3C//DTD SVG 1.1//EN" "http://www.w3.org/Graphics/SVG/1.1/DTD/svg11.dtd">
<svg version="1.1" id="Layer_1" xmlns="http://www.w3.org/2000/svg" xmlns:xlink="http://www.w3.org/1999/xlink" x="0px" y="0px"
	 width="960px" height="560px" viewBox="0 0 960 560" enable-background="new 0 0 960 560" xml:space="preserve">
<path fill="#969696" d="M395.701,315.436c-61.903,0-112.085-50.182-112.085-112.085c0-61.903,50.182-112.085,112.085-112.085
	c11.043,0,21.711,1.605,31.789,4.581c-22.361-15.574-49.539-24.713-78.855-24.713c-76.299,0-138.151,61.853-138.151,138.151
	c0,76.3,61.853,138.151,138.151,138.151c41.78,0,79.228-18.548,104.561-47.856C436.385,309.645,416.721,315.436,395.701,315.436z"/>
<path fill="#686868" d="M361.035,339.436c-69.892,0-126.551-58.387-126.551-130.411S291.143,78.612,361.035,78.612
	c22.298,0,43.236,5.963,61.429,16.397c1.013,0.269,2.025,0.54,3.027,0.836c-22.362-15.574-49.54-24.713-78.856-24.713
	c-76.299,0-138.151,61.853-138.151,138.151c0,76.3,61.853,138.151,138.151,138.151c36.898,0,70.41-14.473,95.189-38.042
	C419.906,328.149,391.752,339.436,361.035,339.436z"/>
<circle fill="#808080" cx="290.242" cy="276.422" r="9.479"/>
<ellipse fill="#666666" cx="329.756" cy="308.631" rx="4.964" ry="5.687"/>
<circle fill="#808080" cx="269.872" cy="155.792" r="11.848"/>
<ellipse fill="#666666" cx="272.692" cy="204.526" rx="5.028" ry="4.374"/>
</svg>
