<?xml version="1.0" encoding="utf-8"?>
<!-- Generator: Adobe Illustrator 16.0.0, SVG Export Plug-In . SVG Version: 6.00 Build 0)  -->
<!DOCTYPE svg PUBLIC "-//W3C//DTD SVG 1.1//EN" "http://www.w3.org/Graphics/SVG/1.1/DTD/svg11.dtd">
<svg version="1.1" id="Layer_1" xmlns="http://www.w3.org/2000/svg" xmlns:xlink="http://www.w3.org/1999/xlink" x="0px" y="0px"
	 width="960px" height="560px" viewBox="0 0 960 560" enable-background="new 0 0 960 560" xml:space="preserve">
<circle fill="#FCEE21" stroke="#BCC14D" stroke-width="12" stroke-miterlimit="10" cx="404.588" cy="318.218" r="19.194"/>
<circle fill="#FCEE21" stroke="#BCC14D" stroke-width="12" stroke-miterlimit="10" cx="609.933" cy="299.474" r="19.194"/>
<path fill="#FCEE21" stroke="#BCC14D" stroke-width="12" stroke-miterlimit="10" d="M326.824,194.669
	c9.417-27.911-12.624-115.656-12.624-115.656s79.28,44.112,100.837,36.454"/>
<path fill="#FCEE21" stroke="#BCC14D" stroke-width="12" stroke-miterlimit="10" d="M410.849,116.684
	c23.723-17.462,55.994-101.982,55.994-101.982s39.643,81.606,61.693,87.697"/>
<path fill="#FCEE21" stroke="#BCC14D" stroke-width="12" stroke-miterlimit="10" d="M523.707,103.393
	c29.405,1.734,108.248-42.639,108.248-42.639s-21.674,88.098-8.609,106.876"/>
<path fill="#FCEE21" stroke="#BCC14D" stroke-width="12" stroke-miterlimit="10" d="M597.786,154.558
	c22.514,18.995,112.23,30.661,112.23,30.661s-70.107,57.584-70.887,80.447"/>
<path fill="#FCEE21" stroke="#BCC14D" stroke-width="12" stroke-miterlimit="10" d="M640.842,237.674
	c6.597,28.708,71.331,91.911,71.331,91.911s-90.639,3.947-104.991,21.761"/>
<path fill="#FCEE21" stroke="#BCC14D" stroke-width="12" stroke-miterlimit="10" d="M636.41,303.618
	c-4.287,29.144,33.055,111.549,33.055,111.549s-85.877-29.26-105.722-17.88"/>
<path fill="#FCEE21" stroke="#BCC14D" stroke-width="12" stroke-miterlimit="10" d="M597.794,368.686
	c-15.467,25.07-13.77,115.525-13.77,115.525S516.729,423.366,494,425.968"/>
<path fill="#FCEE21" stroke="#BCC14D" stroke-width="12" stroke-miterlimit="10" d="M511.633,428.786
	c-27.928,9.37-84.5,79.972-84.5,79.972s-12.786-89.818-31.917-102.361"/>
<path fill="#FCEE21" stroke="#BCC14D" stroke-width="12" stroke-miterlimit="10" d="M409.19,413.228
	c-28.489-5.073-110.774,30.662-110.774,30.662s31.761-86.202,21.273-106.578"/>
<path fill="#FCEE21" stroke="#BCC14D" stroke-width="12" stroke-miterlimit="10" d="M345.27,355.32
	c-19.936-20.975-107.387-40.977-107.387-40.977s76.68-50.593,80.314-73.22"/>
<path fill="#FCEE21" stroke="#BCC14D" stroke-width="12" stroke-miterlimit="10" d="M319.958,270.546
	c-2.615-28.818-58.773-98.776-58.773-98.776s91.525,7.918,108.417-7.569"/>
<circle fill="#FCEE21" stroke="#BCC14D" stroke-width="12" stroke-miterlimit="10" cx="480.156" cy="265.071" r="161.611"/>
<circle fill="#FCEE21" stroke="#BCC14D" stroke-width="8" stroke-miterlimit="10" cx="394.861" cy="167.861" r="19.194"/>
<circle fill="#FCEE21" stroke="#BCC14D" stroke-width="4" stroke-miterlimit="10" cx="369.861" cy="294.861" r="19.194"/>
<circle fill="#FCEE21" stroke="#BCC14D" stroke-width="4" stroke-miterlimit="10" cx="587.861" cy="299.861" r="19.194"/>
<circle fill="#FCEE21" stroke="#BCC14D" stroke-width="12" stroke-miterlimit="10" cx="460.861" cy="368.861" r="19.194"/>
<circle fill="#BCC14D" stroke="#BCC14D" stroke-width="12" stroke-miterlimit="10" cx="442.861" cy="245.861" r="19.194"/>
</svg>
